# xmcd
#
# Track frame offsets:
#	150
#	14422
#	31990
#	45637
#	60060
#	81912
#	96377
#	106862
#	125472
#	137850
#	162917
#	172960
#	189635
#	205380
#	215955
#	238307
#	256122
#
# Disc length: 3579 seconds
# Revision: 4
# Processed by: cddbd v1.5.2PL0 Copyright (c) Steve Scherf et al.
# Submitted via: dBpowerAMP V12.0
#
DISCID=ef0df911
DTITLE=Rag Mama Rag - Rollin' Mill Stomp
DYEAR=1998
DGENRE=Blues
TTITLE0=Viola Lee Blues
TTITLE1=Rollin' Mill Stomp
TTITLE2=You're gonna quit me
TTITLE3=Rally round the flag
TTITLE4=Stackolee
TTITLE5=Everybody's talking about Sadie Green
TTITLE6=Minor evacuation
TTITLE7=Fixin' to die
TTITLE8=Step it up and go
TTITLE9=Goodnite Irene
TTITLE10=Sweet jivin' mama
TTITLE11=Cigarette blues
TTITLE12=Nine pound hammer
TTITLE13=Paradise island swing
TTITLE14=You may leave but this will bring you back
TTITLE15=Poor boy
TTITLE16=Cocaine blues
EXTD=
EXTT0=
EXTT1=
EXTT2=
EXTT3=
EXTT4=
EXTT5=
EXTT6=
EXTT7=
EXTT8=
EXTT9=
EXTT10=
EXTT11=
EXTT12=
EXTT13=
EXTT14=
EXTT15=
EXTT16=
PLAYORDER=
